<svg width="47" height="50" viewBox="0 0 47 50" fill="none" xmlns="http://www.w3.org/2000/svg">
<path d="M18.528 49.344C14.88 49.344 11.648 48.672 8.832 47.328C6.07999 45.984 3.904 44.16 2.304 41.856C0.767995 39.488 0 36.8 0 33.792C0 30.336 0.896005 27.616 2.688 25.632C4.48001 23.648 7.36001 22.24 11.328 21.408C15.296 20.512 20.576 20.064 27.168 20.064H32.448V28.128H27.168C24.672 28.128 22.592 28.32 20.928 28.704C19.328 29.024 18.144 29.568 17.376 30.336C16.608 31.04 16.224 31.968 16.224 33.12C16.224 34.592 16.736 35.808 17.76 36.768C18.848 37.728 20.384 38.208 22.368 38.208C23.968 38.208 25.376 37.856 26.592 37.152C27.872 36.448 28.896 35.488 29.664 34.272C30.432 32.992 30.816 31.52 30.816 29.856V18.72C30.816 16.416 30.208 14.784 28.992 13.824C27.84 12.864 25.824 12.384 22.944 12.384C21.408 12.384 19.68 12.576 17.76 12.96C15.84 13.28 13.696 13.888 11.328 14.784C9.6 15.424 8.12799 15.52 6.91199 15.072C5.69599 14.624 4.736 13.856 4.032 12.768C3.392 11.68 3.07199 10.496 3.07199 9.216C3.13599 7.936 3.55199 6.72 4.31999 5.568C5.15199 4.416 6.39999 3.52 8.064 2.88C11.136 1.728 13.952 0.96 16.512 0.576C19.136 0.192 21.536 0 23.712 0C28.96 0 33.28 0.768001 36.672 2.304C40.128 3.776 42.688 6.08 44.352 9.216C46.08 12.288 46.944 16.256 46.944 21.12V40.512C46.944 43.328 46.272 45.472 44.928 46.944C43.584 48.416 41.632 49.152 39.072 49.152C36.448 49.152 34.432 48.416 33.024 46.944C31.68 45.472 31.008 43.328 31.008 40.512V38.016L31.584 39.36C31.264 41.408 30.528 43.168 29.376 44.64C28.224 46.112 26.72 47.264 24.864 48.096C23.008 48.928 20.896 49.344 18.528 49.344Z" fill="#DA7DE2"/>
<path fill-rule="evenodd" clip-rule="evenodd" d="M8.83203 47.328C11.6479 48.672 14.88 49.344 18.528 49.344C20.896 49.344 23.0079 48.928 24.864 48.096C26.72 47.264 28.224 46.112 29.376 44.64C30.0916 43.7256 30.6467 42.7 31.0413 41.5633C31.1917 43.8674 31.8525 45.661 33.024 46.944C34.432 48.416 36.448 49.152 39.072 49.152C41.632 49.152 43.584 48.416 44.928 46.944C46.272 45.472 46.944 43.328 46.944 40.512V21.12C46.944 20.892 46.942 20.666 46.9382 20.4419C42.6066 20.728 37.7253 20.744 32.448 20.5555C31.9081 20.5362 31.364 20.5148 30.816 20.4913C28.5724 20.3951 26.262 20.2642 23.8961 20.1034C18.8058 20.2306 14.6163 20.6655 11.328 21.408C7.35999 22.24 4.47998 23.648 2.68799 25.632C0.895996 27.616 0 30.336 0 33.792C0 36.8 0.767944 39.488 2.30396 41.856C3.90405 44.16 6.07996 45.984 8.83203 47.328ZM30.816 28.128H27.168C24.672 28.128 22.592 28.32 20.928 28.704C19.328 29.024 18.144 29.568 17.376 30.336C16.608 31.04 16.224 31.968 16.224 33.12C16.224 34.592 16.736 35.808 17.76 36.768C18.848 37.728 20.384 38.208 22.368 38.208C23.968 38.208 25.376 37.856 26.592 37.152C27.8719 36.448 28.896 35.488 29.6639 34.272C30.432 32.992 30.816 31.52 30.816 29.856V28.128Z" fill="white"/>
</svg>
