<svg width="453" height="74" viewBox="0 0 453 74" fill="none" xmlns="http://www.w3.org/2000/svg">
<path d="M149.728 72.864C146.912 72.864 144.736 72.128 143.2 70.656C141.728 69.184 140.992 67.04 140.992 64.224V32.448C140.992 29.696 141.696 27.584 143.104 26.112C144.576 24.64 146.656 23.904 149.344 23.904C152.032 23.904 154.08 24.64 155.488 26.112C156.896 27.584 157.6 29.696 157.6 32.448V36.384H156.64C157.28 32.544 158.912 29.504 161.536 27.264C164.224 25.024 167.552 23.84 171.52 23.712C173.376 23.648 174.752 24.128 175.648 25.152C176.608 26.112 177.12 27.936 177.184 30.624C177.184 32.928 176.704 34.752 175.744 36.096C174.784 37.44 172.96 38.24 170.272 38.496L168.064 38.688C164.672 39.008 162.208 39.968 160.672 41.568C159.136 43.104 158.368 45.408 158.368 48.48V64.224C158.368 67.04 157.632 69.184 156.16 70.656C154.688 72.128 152.544 72.864 149.728 72.864ZM198.564 73.056C194.916 73.056 191.684 72.384 188.868 71.04C186.116 69.696 183.94 67.872 182.34 65.568C180.804 63.2 180.036 60.512 180.036 57.504C180.036 54.048 180.932 51.328 182.724 49.344C184.516 47.36 187.396 45.952 191.364 45.12C195.332 44.224 200.612 43.776 207.204 43.776H212.484V51.84H207.204C204.708 51.84 202.628 52.032 200.964 52.416C199.364 52.736 198.18 53.28 197.412 54.048C196.644 54.752 196.26 55.68 196.26 56.832C196.26 58.304 196.772 59.52 197.796 60.48C198.884 61.44 200.42 61.92 202.404 61.92C204.004 61.92 205.412 61.568 206.628 60.864C207.908 60.16 208.932 59.2 209.7 57.984C210.468 56.704 210.852 55.232 210.852 53.568V42.432C210.852 40.128 210.244 38.496 209.028 37.536C207.876 36.576 205.86 36.096 202.98 36.096C201.444 36.096 199.716 36.288 197.796 36.672C195.876 36.992 193.732 37.6 191.364 38.496C189.636 39.136 188.164 39.232 186.948 38.784C185.732 38.336 184.772 37.568 184.068 36.48C183.428 35.392 183.108 34.208 183.108 32.928C183.172 31.648 183.588 30.432 184.356 29.28C185.188 28.128 186.436 27.232 188.1 26.592C191.172 25.44 193.988 24.672 196.548 24.288C199.172 23.904 201.572 23.712 203.748 23.712C208.996 23.712 213.316 24.48 216.708 26.016C220.164 27.488 222.724 29.792 224.388 32.928C226.116 36 226.98 39.968 226.98 44.832V64.224C226.98 67.04 226.308 69.184 224.964 70.656C223.62 72.128 221.668 72.864 219.108 72.864C216.484 72.864 214.468 72.128 213.06 70.656C211.716 69.184 211.044 67.04 211.044 64.224V61.728L211.62 63.072C211.3 65.12 210.564 66.88 209.412 68.352C208.26 69.824 206.756 70.976 204.9 71.808C203.044 72.64 200.932 73.056 198.564 73.056ZM245.159 72.864C242.471 72.864 240.391 72.128 238.919 70.656C237.447 69.184 236.711 67.04 236.711 64.224V32.448C236.711 29.696 237.415 27.584 238.823 26.112C240.295 24.64 242.375 23.904 245.063 23.904C247.751 23.904 249.799 24.64 251.207 26.112C252.615 27.584 253.319 29.696 253.319 32.448V36.96L252.263 33.024C253.799 30.016 255.975 27.712 258.791 26.112C261.671 24.512 264.935 23.712 268.583 23.712C272.359 23.712 275.463 24.448 277.895 25.92C280.327 27.328 282.151 29.568 283.367 32.64C284.583 35.648 285.191 39.456 285.191 44.064V64.224C285.191 67.04 284.455 69.184 282.983 70.656C281.511 72.128 279.399 72.864 276.647 72.864C273.895 72.864 271.783 72.128 270.311 70.656C268.839 69.184 268.103 67.04 268.103 64.224V44.736C268.103 41.856 267.591 39.808 266.567 38.592C265.607 37.376 264.167 36.768 262.247 36.768C259.687 36.768 257.639 37.6 256.103 39.264C254.567 40.864 253.799 43.04 253.799 45.792V64.224C253.799 69.984 250.919 72.864 245.159 72.864ZM303.378 72.864C300.69 72.864 298.61 72.128 297.138 70.656C295.666 69.184 294.93 67.04 294.93 64.224V12.096C294.93 9.28 295.666 7.136 297.138 5.664C298.61 4.192 300.69 3.45599 303.378 3.45599C306.13 3.45599 308.242 4.192 309.714 5.664C311.25 7.136 312.018 9.28 312.018 12.096V43.776H312.21L323.922 29.568C325.522 27.648 326.994 26.24 328.338 25.344C329.746 24.384 331.634 23.904 334.002 23.904C336.37 23.904 338.194 24.48 339.474 25.632C340.754 26.784 341.426 28.224 341.49 29.952C341.554 31.68 340.85 33.408 339.378 35.136L326.706 50.112V44.16L340.914 62.016C342.322 63.808 342.898 65.568 342.642 67.296C342.386 68.96 341.554 70.304 340.146 71.328C338.802 72.352 337.074 72.864 334.962 72.864C332.402 72.864 330.354 72.416 328.818 71.52C327.282 70.56 325.746 69.088 324.21 67.104L312.21 52.32H312.018V64.224C312.018 69.984 309.138 72.864 303.378 72.864ZM375.689 73.056C369.929 73.056 364.937 72.064 360.713 70.08C356.553 68.032 353.353 65.152 351.113 61.44C348.873 57.728 347.753 53.344 347.753 48.288C347.753 43.424 348.809 39.168 350.921 35.52C353.097 31.808 356.041 28.928 359.753 26.88C363.529 24.768 367.817 23.712 372.617 23.712C376.137 23.712 379.337 24.288 382.217 25.44C385.097 26.528 387.561 28.16 389.609 30.336C391.657 32.448 393.193 35.008 394.217 38.016C395.305 41.024 395.849 44.384 395.849 48.096C395.849 49.376 395.497 50.336 394.793 50.976C394.089 51.552 392.969 51.84 391.433 51.84H362.057V43.776H383.369L381.833 45.024C381.833 42.656 381.513 40.736 380.873 39.264C380.233 37.792 379.273 36.672 377.993 35.904C376.777 35.136 375.241 34.752 373.385 34.752C371.401 34.752 369.673 35.232 368.201 36.192C366.793 37.088 365.705 38.432 364.937 40.224C364.169 42.016 363.785 44.256 363.785 46.944V47.808C363.785 52.352 364.777 55.616 366.761 57.6C368.809 59.52 371.945 60.48 376.169 60.48C377.577 60.48 379.177 60.32 380.969 60C382.825 59.616 384.585 59.104 386.249 58.464C387.913 57.824 389.353 57.728 390.569 58.176C391.785 58.56 392.713 59.264 393.353 60.288C394.057 61.248 394.441 62.368 394.505 63.648C394.569 64.864 394.281 66.08 393.641 67.296C393.001 68.448 391.945 69.344 390.473 69.984C388.233 71.008 385.833 71.776 383.273 72.288C380.777 72.8 378.249 73.056 375.689 73.056ZM421.643 73.056C417.611 73.056 414.027 72.064 410.891 70.08C407.819 68.096 405.387 65.248 403.595 61.536C401.867 57.824 401.003 53.44 401.003 48.384C401.003 43.2 401.867 38.784 403.595 35.136C405.387 31.488 407.819 28.672 410.891 26.688C414.027 24.704 417.611 23.712 421.643 23.712C425.163 23.712 428.331 24.544 431.147 26.208C433.963 27.872 435.851 30.016 436.811 32.64H435.755V12.096C435.755 9.28 436.491 7.136 437.963 5.664C439.435 4.192 441.547 3.45599 444.299 3.45599C446.987 3.45599 449.067 4.192 450.539 5.664C452.075 7.136 452.843 9.28 452.843 12.096V64.224C452.843 67.04 452.107 69.184 450.635 70.656C449.227 72.128 447.147 72.864 444.395 72.864C441.707 72.864 439.627 72.128 438.155 70.656C436.683 69.184 435.947 67.04 435.947 64.224V58.752L437.003 63.456C436.107 66.336 434.219 68.672 431.339 70.464C428.523 72.192 425.291 73.056 421.643 73.056ZM427.115 60.48C428.843 60.48 430.379 60.064 431.723 59.232C433.067 58.336 434.091 57.024 434.795 55.296C435.563 53.504 435.947 51.2 435.947 48.384C435.947 44.096 435.115 41.024 433.451 39.168C431.787 37.248 429.675 36.288 427.115 36.288C425.387 36.288 423.851 36.704 422.507 37.536C421.163 38.368 420.107 39.68 419.339 41.472C418.571 43.2 418.187 45.504 418.187 48.384C418.187 52.608 419.019 55.68 420.683 57.6C422.347 59.52 424.491 60.48 427.115 60.48Z" fill="white"/>
<path d="M19.408 73.056C15.76 73.056 12.528 72.384 9.712 71.04C6.96 69.696 4.784 67.872 3.184 65.568C1.648 63.2 0.880005 60.512 0.880005 57.504C0.880005 54.048 1.77601 51.328 3.56801 49.344C5.36001 47.36 8.24001 45.952 12.208 45.12C16.176 44.224 21.456 43.776 28.048 43.776H33.328V51.84H28.048C25.552 51.84 23.472 52.032 21.808 52.416C20.208 52.736 19.024 53.28 18.256 54.048C17.488 54.752 17.104 55.68 17.104 56.832C17.104 58.304 17.616 59.52 18.64 60.48C19.728 61.44 21.264 61.92 23.248 61.92C24.848 61.92 26.256 61.568 27.472 60.864C28.752 60.16 29.776 59.2 30.544 57.984C31.312 56.704 31.696 55.232 31.696 53.568V42.432C31.696 40.128 31.088 38.496 29.872 37.536C28.72 36.576 26.704 36.096 23.824 36.096C22.288 36.096 20.56 36.288 18.64 36.672C16.72 36.992 14.576 37.6 12.208 38.496C10.48 39.136 9.008 39.232 7.792 38.784C6.576 38.336 5.616 37.568 4.912 36.48C4.272 35.392 3.952 34.208 3.952 32.928C4.016 31.648 4.432 30.432 5.2 29.28C6.032 28.128 7.28 27.232 8.94401 26.592C12.016 25.44 14.832 24.672 17.392 24.288C20.016 23.904 22.416 23.712 24.592 23.712C29.84 23.712 34.16 24.48 37.552 26.016C41.008 27.488 43.568 29.792 45.232 32.928C46.96 36 47.824 39.968 47.824 44.832V64.224C47.824 67.04 47.152 69.184 45.808 70.656C44.464 72.128 42.512 72.864 39.952 72.864C37.328 72.864 35.312 72.128 33.904 70.656C32.56 69.184 31.888 67.04 31.888 64.224V61.728L32.464 63.072C32.144 65.12 31.408 66.88 30.256 68.352C29.104 69.824 27.6 70.976 25.744 71.808C23.888 72.64 21.776 73.056 19.408 73.056ZM66.0025 72.864C63.3145 72.864 61.2345 72.128 59.7625 70.656C58.2905 69.184 57.5545 67.04 57.5545 64.224V32.448C57.5545 29.696 58.2585 27.584 59.6665 26.112C61.1385 24.64 63.2185 23.904 65.9065 23.904C68.5945 23.904 70.6425 24.64 72.0505 26.112C73.4585 27.584 74.1625 29.696 74.1625 32.448V36.96L73.1065 33.024C74.6425 30.016 76.8185 27.712 79.6345 26.112C82.5145 24.512 85.7785 23.712 89.4265 23.712C93.2025 23.712 96.3065 24.448 98.7385 25.92C101.171 27.328 102.995 29.568 104.211 32.64C105.427 35.648 106.035 39.456 106.035 44.064V64.224C106.035 67.04 105.299 69.184 103.827 70.656C102.355 72.128 100.243 72.864 97.4905 72.864C94.7385 72.864 92.6265 72.128 91.1545 70.656C89.6825 69.184 88.9465 67.04 88.9465 64.224V44.736C88.9465 41.856 88.4345 39.808 87.4105 38.592C86.4505 37.376 85.0105 36.768 83.0905 36.768C80.5305 36.768 78.4825 37.6 76.9465 39.264C75.4105 40.864 74.6425 43.04 74.6425 45.792V64.224C74.6425 69.984 71.7625 72.864 66.0025 72.864ZM124.221 72.864C121.533 72.864 119.453 72.064 117.981 70.464C116.509 68.864 115.773 66.56 115.773 63.552V33.216C115.773 30.208 116.509 27.904 117.981 26.304C119.453 24.704 121.533 23.904 124.221 23.904C126.973 23.904 129.085 24.704 130.557 26.304C132.093 27.904 132.861 30.208 132.861 33.216V63.552C132.861 66.56 132.125 68.864 130.653 70.464C129.181 72.064 127.037 72.864 124.221 72.864ZM124.221 17.088C121.213 17.088 118.877 16.384 117.213 14.976C115.613 13.568 114.813 11.52 114.813 8.832C114.813 6.20799 115.613 4.192 117.213 2.784C118.877 1.376 121.213 0.671997 124.221 0.671997C127.357 0.671997 129.725 1.376 131.325 2.784C132.925 4.192 133.725 6.20799 133.725 8.832C133.725 11.52 132.925 13.568 131.325 14.976C129.725 16.384 127.357 17.088 124.221 17.088Z" fill="#DA7DE2"/>
<mask id="mask0_1_18" style="mask-type:alpha" maskUnits="userSpaceOnUse" x="0" y="0" width="134" height="74">
<path d="M19.408 73.056C15.76 73.056 12.528 72.384 9.712 71.04C6.96 69.696 4.784 67.872 3.184 65.568C1.648 63.2 0.880005 60.512 0.880005 57.504C0.880005 54.048 1.77601 51.328 3.56801 49.344C5.36001 47.36 8.24001 45.952 12.208 45.12C16.176 44.224 21.456 43.776 28.048 43.776H33.328V51.84H28.048C25.552 51.84 23.472 52.032 21.808 52.416C20.208 52.736 19.024 53.28 18.256 54.048C17.488 54.752 17.104 55.68 17.104 56.832C17.104 58.304 17.616 59.52 18.64 60.48C19.728 61.44 21.264 61.92 23.248 61.92C24.848 61.92 26.256 61.568 27.472 60.864C28.752 60.16 29.776 59.2 30.544 57.984C31.312 56.704 31.696 55.232 31.696 53.568V42.432C31.696 40.128 31.088 38.496 29.872 37.536C28.72 36.576 26.704 36.096 23.824 36.096C22.288 36.096 20.56 36.288 18.64 36.672C16.72 36.992 14.576 37.6 12.208 38.496C10.48 39.136 9.008 39.232 7.792 38.784C6.576 38.336 5.616 37.568 4.912 36.48C4.272 35.392 3.952 34.208 3.952 32.928C4.016 31.648 4.432 30.432 5.2 29.28C6.032 28.128 7.28 27.232 8.94401 26.592C12.016 25.44 14.832 24.672 17.392 24.288C20.016 23.904 22.416 23.712 24.592 23.712C29.84 23.712 34.16 24.48 37.552 26.016C41.008 27.488 43.568 29.792 45.232 32.928C46.96 36 47.824 39.968 47.824 44.832V64.224C47.824 67.04 47.152 69.184 45.808 70.656C44.464 72.128 42.512 72.864 39.952 72.864C37.328 72.864 35.312 72.128 33.904 70.656C32.56 69.184 31.888 67.04 31.888 64.224V61.728L32.464 63.072C32.144 65.12 31.408 66.88 30.256 68.352C29.104 69.824 27.6 70.976 25.744 71.808C23.888 72.64 21.776 73.056 19.408 73.056ZM66.0025 72.864C63.3145 72.864 61.2345 72.128 59.7625 70.656C58.2905 69.184 57.5545 67.04 57.5545 64.224V32.448C57.5545 29.696 58.2585 27.584 59.6665 26.112C61.1385 24.64 63.2185 23.904 65.9065 23.904C68.5945 23.904 70.6425 24.64 72.0505 26.112C73.4585 27.584 74.1625 29.696 74.1625 32.448V36.96L73.1065 33.024C74.6425 30.016 76.8185 27.712 79.6345 26.112C82.5145 24.512 85.7785 23.712 89.4265 23.712C93.2025 23.712 96.3065 24.448 98.7385 25.92C101.171 27.328 102.995 29.568 104.211 32.64C105.427 35.648 106.035 39.456 106.035 44.064V64.224C106.035 67.04 105.299 69.184 103.827 70.656C102.355 72.128 100.243 72.864 97.4905 72.864C94.7385 72.864 92.6265 72.128 91.1545 70.656C89.6825 69.184 88.9465 67.04 88.9465 64.224V44.736C88.9465 41.856 88.4345 39.808 87.4105 38.592C86.4505 37.376 85.0105 36.768 83.0905 36.768C80.5305 36.768 78.4825 37.6 76.9465 39.264C75.4105 40.864 74.6425 43.04 74.6425 45.792V64.224C74.6425 69.984 71.7625 72.864 66.0025 72.864ZM124.221 72.864C121.533 72.864 119.453 72.064 117.981 70.464C116.509 68.864 115.773 66.56 115.773 63.552V33.216C115.773 30.208 116.509 27.904 117.981 26.304C119.453 24.704 121.533 23.904 124.221 23.904C126.973 23.904 129.085 24.704 130.557 26.304C132.093 27.904 132.861 30.208 132.861 33.216V63.552C132.861 66.56 132.125 68.864 130.653 70.464C129.181 72.064 127.037 72.864 124.221 72.864ZM124.221 17.088C121.213 17.088 118.877 16.384 117.213 14.976C115.613 13.568 114.813 11.52 114.813 8.832C114.813 6.20799 115.613 4.192 117.213 2.784C118.877 1.376 121.213 0.671997 124.221 0.671997C127.357 0.671997 129.725 1.376 131.325 2.784C132.925 4.192 133.725 6.20799 133.725 8.832C133.725 11.52 132.925 13.568 131.325 14.976C129.725 16.384 127.357 17.088 124.221 17.088Z" fill="#DA7DE2"/>
</mask>
<g mask="url(#mask0_1_18)">
<path d="M-20 43.5C9.84657 38.7783 137 70.9999 135 43.5V100.5H-20V43.5Z" fill="white"/>
</g>
</svg>
